<svg width="20" height="20" viewBox="0 0 20 20" fill="none" xmlns="http://www.w3.org/2000/svg">
<path d="M15.2082 17.0833C15.5533 17.0832 15.8333 17.363 15.8333 17.7081C15.8333 18.0533 15.5537 18.3332 15.2085 18.3333L4.37518 18.3365C4.03 18.3366 3.75 18.0568 3.75 17.7116C3.75 17.3665 4.02964 17.0866 4.37482 17.0865L15.2082 17.0833ZM9.70686 1.67648L9.79167 1.67078C10.1081 1.67078 10.3696 1.9059 10.411 2.21097L10.4167 2.29578L10.4158 13.6999L13.5173 10.5997C13.7393 10.3778 14.0865 10.3577 14.3311 10.5392L14.4012 10.5998C14.6231 10.8217 14.6432 11.1689 14.4617 11.4136L14.4011 11.4836L10.2364 15.6475C10.0146 15.8692 9.66766 15.8895 9.423 15.7082L9.3529 15.6477L5.18336 11.4839C4.93912 11.24 4.93885 10.8443 5.18276 10.6C5.40449 10.378 5.7517 10.3576 5.9965 10.5389L6.06664 10.5994L9.16583 13.6941L9.16667 2.29578C9.16667 1.97936 9.40179 1.71787 9.70686 1.67648L9.79167 1.67078L9.70686 1.67648Z" fill="#545454"/>
</svg>
