<svg width="20" height="20" viewBox="0 0 20 20" fill="none" xmlns="http://www.w3.org/2000/svg">
<path d="M11.0164 5.65096C10.7945 5.42907 10.7743 5.08185 10.9559 4.83717L11.0164 4.76708L12.9892 2.79199C13.094 2.61834 13.3024 2.5 13.5424 2.5C13.7525 2.5 13.9384 2.59072 14.0517 2.72982L14.0956 2.79227L16.0683 4.76708L16.1288 4.83717C16.2902 5.05466 16.2922 5.35318 16.1348 5.57267L16.0683 5.65096L15.9982 5.71147C15.7807 5.87285 15.4822 5.87484 15.2627 5.71745L15.1844 5.65096L14.1667 4.63333V7.78653L14.161 7.86073C14.1195 8.12766 13.858 8.33333 13.5416 8.33333C13.2252 8.33333 12.9637 8.12754 12.9224 7.8606L12.9167 7.78639V4.63333L11.9003 5.65096L11.8302 5.71147C11.5855 5.89302 11.2383 5.87285 11.0164 5.65096ZM11.0188 14.349C11.2407 14.1272 11.5879 14.107 11.8326 14.2885L11.9027 14.349L12.9191 15.3667V12.2136C12.9191 11.9116 13.1988 11.6667 13.544 11.6667C13.8604 11.6667 14.122 11.8723 14.1634 12.1393L14.1691 12.2135V15.3667L15.1869 14.349C15.4087 14.1272 15.756 14.107 16.0006 14.2885L16.0707 14.349C16.2926 14.5709 16.3128 14.9181 16.1313 15.1628L16.0707 15.2329L14.0981 17.2077C13.9934 17.3815 13.785 17.5 13.5449 17.5C13.3048 17.5 13.0964 17.3817 12.9917 17.208L11.0188 15.2329C10.7747 14.9888 10.7747 14.5931 11.0188 14.349ZM5.20833 3.32682C4.1728 3.32682 3.33333 4.16629 3.33333 5.20182V14.7852C3.33333 15.8207 4.1728 16.6602 5.20833 16.6602H8.54167C8.88684 16.6602 9.16667 16.3803 9.16667 16.0352C9.16667 15.69 8.88684 15.4102 8.54167 15.4102H5.20833C4.86315 15.4102 4.58333 15.1303 4.58333 14.7852V5.20182C4.58333 4.85664 4.86315 4.57682 5.20833 4.57682H8.54167C8.88684 4.57682 9.16667 4.297 9.16667 3.95182C9.16667 3.60664 8.88684 3.32682 8.54167 3.32682H5.20833Z" fill="#121212"/>
</svg>
