<svg width="20" height="20" viewBox="0 0 20 20" fill="none" xmlns="http://www.w3.org/2000/svg">
<path d="M10 2.5C10.3452 2.5 10.625 2.77982 10.625 3.125V7.91667H12.7045C13.9702 7.91667 14.9962 8.94268 14.9962 10.2083V15.368L16.4333 13.9328C16.6776 13.6888 17.0733 13.6891 17.3172 13.9334C17.5611 14.1776 17.5609 14.5733 17.3166 14.8172L14.8128 17.3177C14.5687 17.5615 14.1732 17.5613 13.9293 17.3174L11.4288 14.8169C11.1848 14.5729 11.1848 14.1771 11.4288 13.9331C11.6729 13.689 12.0686 13.689 12.3127 13.9331L13.7462 15.3665V10.2083C13.7462 9.63304 13.2798 9.16667 12.7045 9.16667H7.29159C6.71629 9.16667 6.24992 9.63304 6.24992 10.2083V15.3665L7.6834 13.9331C7.92748 13.689 8.32321 13.689 8.56728 13.9331C8.81136 14.1771 8.81136 14.5729 8.56728 14.8169L6.06686 17.3174C5.82279 17.5614 5.42706 17.5614 5.18298 17.3174L2.68251 14.8169C2.43843 14.5729 2.43843 14.1771 2.6825 13.9331C2.92658 13.689 3.32231 13.689 3.56639 13.9331L4.99992 15.3666V10.2083C4.99992 8.94268 6.02594 7.91667 7.29159 7.91667H9.375V3.125C9.375 2.77982 9.65482 2.5 10 2.5Z" fill="white"/>
</svg>
