<svg width="16" height="16" viewBox="0 0 16 16" fill="none" xmlns="http://www.w3.org/2000/svg">
<path d="M8 1.33333C11.6819 1.33333 14.6667 4.3181 14.6667 8C14.6667 11.6819 11.6819 14.6667 8 14.6667C4.3181 14.6667 1.33333 11.6819 1.33333 8C1.33333 4.3181 4.3181 1.33333 8 1.33333ZM4.97978 6.64644C4.78452 6.8417 4.78452 7.15829 4.97978 7.35355L7.64645 10.0202C7.84171 10.2155 8.15829 10.2155 8.35355 10.0202L11.0202 7.35355C11.2155 7.15829 11.2155 6.8417 11.0202 6.64644C10.825 6.45118 10.5084 6.45118 10.3131 6.64644L8 8.95955L5.68689 6.64644C5.49162 6.45118 5.17504 6.45118 4.97978 6.64644Z" fill="#AFAFAF"/>
<path d="M8 1.33333C11.6819 1.33333 14.6667 4.3181 14.6667 8C14.6667 11.6819 11.6819 14.6667 8 14.6667C4.3181 14.6667 1.33333 11.6819 1.33333 8C1.33333 4.3181 4.3181 1.33333 8 1.33333ZM4.97978 6.64644C4.78452 6.8417 4.78452 7.15829 4.97978 7.35355L7.64645 10.0202C7.84171 10.2155 8.15829 10.2155 8.35355 10.0202L11.0202 7.35355C11.2155 7.15829 11.2155 6.8417 11.0202 6.64644C10.825 6.45118 10.5084 6.45118 10.3131 6.64644L8 8.95955L5.68689 6.64644C5.49162 6.45118 5.17504 6.45118 4.97978 6.64644Z" fill="black" fill-opacity="0.7" style="mix-blend-mode:hue"/>
<path d="M8 1.33333C11.6819 1.33333 14.6667 4.3181 14.6667 8C14.6667 11.6819 11.6819 14.6667 8 14.6667C4.3181 14.6667 1.33333 11.6819 1.33333 8C1.33333 4.3181 4.3181 1.33333 8 1.33333ZM4.97978 6.64644C4.78452 6.8417 4.78452 7.15829 4.97978 7.35355L7.64645 10.0202C7.84171 10.2155 8.15829 10.2155 8.35355 10.0202L11.0202 7.35355C11.2155 7.15829 11.2155 6.8417 11.0202 6.64644C10.825 6.45118 10.5084 6.45118 10.3131 6.64644L8 8.95955L5.68689 6.64644C5.49162 6.45118 5.17504 6.45118 4.97978 6.64644Z" fill="white" fill-opacity="0.16"/>
</svg>
