<svg width="16" height="16" viewBox="0 0 16 16" fill="none" xmlns="http://www.w3.org/2000/svg">
<path d="M4.99999 5.00017V1.16667C4.99999 0.890529 5.22385 0.666672 5.49999 0.666672C5.77613 0.666672 5.99999 0.890529 5.99999 1.16667V5.00017C5.99999 5.18426 6.14923 5.3335 6.33332 5.3335C6.51742 5.3335 6.66666 5.18426 6.66666 5.00017V1.66667C6.66666 1.39053 6.89051 1.16667 7.16666 1.16667C7.4428 1.16667 7.66666 1.39053 7.66666 1.66667V5.50001C7.66666 5.51415 7.66607 5.52815 7.66492 5.542C7.95307 5.43312 8.31391 5.3308 8.66666 5.3308C8.99988 5.3308 9.28488 5.41403 9.49614 5.52043C9.60043 5.57296 9.69744 5.63652 9.77669 5.7086C9.81564 5.74403 9.8606 5.79083 9.8997 5.84899C9.93042 5.8947 9.99999 6.00874 9.99999 6.16667C9.99999 6.33907 9.91118 6.4993 9.76499 6.59067L8.49409 7.38498L7.38887 8.64564L6.47068 9.91038C6.12577 10.3855 5.57419 10.6666 4.9871 10.6666H4.22808C3.60743 10.6666 3.01232 10.3514 2.69148 9.79257C2.49005 9.44174 2.24069 8.98076 2.0402 8.52452C1.84948 8.09048 1.66666 7.58261 1.66666 7.16664V2.50001C1.66666 2.22386 1.89051 2.00001 2.16666 2.00001C2.4428 2.00001 2.66666 2.22386 2.66666 2.50001V5.33196C2.66666 5.51605 2.81589 5.66529 2.99999 5.66529C3.18408 5.66529 3.33332 5.51605 3.33332 5.33196V1.66667C3.33332 1.39053 3.55718 1.16667 3.83332 1.16667C4.10947 1.16667 4.33332 1.39053 4.33332 1.66667V5.00017C4.33332 5.18426 4.48256 5.3335 4.66666 5.3335C4.85075 5.3335 4.99999 5.18426 4.99999 5.00017ZM9.99993 14.6667C7.86572 14.6667 6.06612 13.234 5.51041 11.278C6.10762 11.1501 6.64417 10.8061 7.01011 10.3021L7.9103 9.06211L8.93061 7.8983L10.1183 7.15602C10.4594 6.94282 10.6666 6.56894 10.6666 6.16669C10.6666 5.81248 10.5114 5.56406 10.4529 5.47709C10.4203 5.42851 10.3863 5.38501 10.3532 5.34652C12.7655 5.52706 14.6666 7.54152 14.6666 10C14.6666 12.5773 12.5773 14.6667 9.99993 14.6667ZM11.9999 9.33335C11.9999 8.96516 11.7015 8.66669 11.3333 8.66669C10.9651 8.66669 10.6666 8.96516 10.6666 9.33335C10.6666 9.70154 10.9651 10 11.3333 10C11.7015 10 11.9999 9.70154 11.9999 9.33335ZM8.09147 11.1415C7.89245 11.3329 7.8863 11.6494 8.07773 11.8484C8.56229 12.3522 9.24475 12.6667 9.9998 12.6667C10.7549 12.6667 11.4373 12.3522 11.9219 11.8484C12.1133 11.6494 12.1072 11.3329 11.9081 11.1415C11.7091 10.95 11.3926 10.9562 11.2012 11.1552C10.8973 11.4711 10.4718 11.6667 9.9998 11.6667C9.52778 11.6667 9.10228 11.4711 8.79844 11.1552C8.60701 10.9562 8.29048 10.95 8.09147 11.1415ZM9.33327 9.33335C9.33327 8.96516 9.03479 8.66669 8.6666 8.66669C8.29841 8.66669 7.99993 8.96516 7.99993 9.33335C7.99993 9.70154 8.29841 10 8.6666 10C9.03479 10 9.33327 9.70154 9.33327 9.33335Z" fill="#83A588"/>
<path d="M4.99999 5.00017V1.16667C4.99999 0.890529 5.22385 0.666672 5.49999 0.666672C5.77613 0.666672 5.99999 0.890529 5.99999 1.16667V5.00017C5.99999 5.18426 6.14923 5.3335 6.33332 5.3335C6.51742 5.3335 6.66666 5.18426 6.66666 5.00017V1.66667C6.66666 1.39053 6.89051 1.16667 7.16666 1.16667C7.4428 1.16667 7.66666 1.39053 7.66666 1.66667V5.50001C7.66666 5.51415 7.66607 5.52815 7.66492 5.542C7.95307 5.43312 8.31391 5.3308 8.66666 5.3308C8.99988 5.3308 9.28488 5.41403 9.49614 5.52043C9.60043 5.57296 9.69744 5.63652 9.77669 5.7086C9.81564 5.74403 9.8606 5.79083 9.8997 5.84899C9.93042 5.8947 9.99999 6.00874 9.99999 6.16667C9.99999 6.33907 9.91118 6.4993 9.76499 6.59067L8.49409 7.38498L7.38887 8.64564L6.47068 9.91038C6.12577 10.3855 5.57419 10.6666 4.9871 10.6666H4.22808C3.60743 10.6666 3.01232 10.3514 2.69148 9.79257C2.49005 9.44174 2.24069 8.98076 2.0402 8.52452C1.84948 8.09048 1.66666 7.58261 1.66666 7.16664V2.50001C1.66666 2.22386 1.89051 2.00001 2.16666 2.00001C2.4428 2.00001 2.66666 2.22386 2.66666 2.50001V5.33196C2.66666 5.51605 2.81589 5.66529 2.99999 5.66529C3.18408 5.66529 3.33332 5.51605 3.33332 5.33196V1.66667C3.33332 1.39053 3.55718 1.16667 3.83332 1.16667C4.10947 1.16667 4.33332 1.39053 4.33332 1.66667V5.00017C4.33332 5.18426 4.48256 5.3335 4.66666 5.3335C4.85075 5.3335 4.99999 5.18426 4.99999 5.00017ZM9.99993 14.6667C7.86572 14.6667 6.06612 13.234 5.51041 11.278C6.10762 11.1501 6.64417 10.8061 7.01011 10.3021L7.9103 9.06211L8.93061 7.8983L10.1183 7.15602C10.4594 6.94282 10.6666 6.56894 10.6666 6.16669C10.6666 5.81248 10.5114 5.56406 10.4529 5.47709C10.4203 5.42851 10.3863 5.38501 10.3532 5.34652C12.7655 5.52706 14.6666 7.54152 14.6666 10C14.6666 12.5773 12.5773 14.6667 9.99993 14.6667ZM11.9999 9.33335C11.9999 8.96516 11.7015 8.66669 11.3333 8.66669C10.9651 8.66669 10.6666 8.96516 10.6666 9.33335C10.6666 9.70154 10.9651 10 11.3333 10C11.7015 10 11.9999 9.70154 11.9999 9.33335ZM8.09147 11.1415C7.89245 11.3329 7.8863 11.6494 8.07773 11.8484C8.56229 12.3522 9.24475 12.6667 9.9998 12.6667C10.7549 12.6667 11.4373 12.3522 11.9219 11.8484C12.1133 11.6494 12.1072 11.3329 11.9081 11.1415C11.7091 10.95 11.3926 10.9562 11.2012 11.1552C10.8973 11.4711 10.4718 11.6667 9.9998 11.6667C9.52778 11.6667 9.10228 11.4711 8.79844 11.1552C8.60701 10.9562 8.29048 10.95 8.09147 11.1415ZM9.33327 9.33335C9.33327 8.96516 9.03479 8.66669 8.6666 8.66669C8.29841 8.66669 7.99993 8.96516 7.99993 9.33335C7.99993 9.70154 8.29841 10 8.6666 10C9.03479 10 9.33327 9.70154 9.33327 9.33335Z" fill="black" fill-opacity="0.7" style="mix-blend-mode:hue"/>
<path d="M4.99999 5.00017V1.16667C4.99999 0.890529 5.22385 0.666672 5.49999 0.666672C5.77613 0.666672 5.99999 0.890529 5.99999 1.16667V5.00017C5.99999 5.18426 6.14923 5.3335 6.33332 5.3335C6.51742 5.3335 6.66666 5.18426 6.66666 5.00017V1.66667C6.66666 1.39053 6.89051 1.16667 7.16666 1.16667C7.4428 1.16667 7.66666 1.39053 7.66666 1.66667V5.50001C7.66666 5.51415 7.66607 5.52815 7.66492 5.542C7.95307 5.43312 8.31391 5.3308 8.66666 5.3308C8.99988 5.3308 9.28488 5.41403 9.49614 5.52043C9.60043 5.57296 9.69744 5.63652 9.77669 5.7086C9.81564 5.74403 9.8606 5.79083 9.8997 5.84899C9.93042 5.8947 9.99999 6.00874 9.99999 6.16667C9.99999 6.33907 9.91118 6.4993 9.76499 6.59067L8.49409 7.38498L7.38887 8.64564L6.47068 9.91038C6.12577 10.3855 5.57419 10.6666 4.9871 10.6666H4.22808C3.60743 10.6666 3.01232 10.3514 2.69148 9.79257C2.49005 9.44174 2.24069 8.98076 2.0402 8.52452C1.84948 8.09048 1.66666 7.58261 1.66666 7.16664V2.50001C1.66666 2.22386 1.89051 2.00001 2.16666 2.00001C2.4428 2.00001 2.66666 2.22386 2.66666 2.50001V5.33196C2.66666 5.51605 2.81589 5.66529 2.99999 5.66529C3.18408 5.66529 3.33332 5.51605 3.33332 5.33196V1.66667C3.33332 1.39053 3.55718 1.16667 3.83332 1.16667C4.10947 1.16667 4.33332 1.39053 4.33332 1.66667V5.00017C4.33332 5.18426 4.48256 5.3335 4.66666 5.3335C4.85075 5.3335 4.99999 5.18426 4.99999 5.00017ZM9.99993 14.6667C7.86572 14.6667 6.06612 13.234 5.51041 11.278C6.10762 11.1501 6.64417 10.8061 7.01011 10.3021L7.9103 9.06211L8.93061 7.8983L10.1183 7.15602C10.4594 6.94282 10.6666 6.56894 10.6666 6.16669C10.6666 5.81248 10.5114 5.56406 10.4529 5.47709C10.4203 5.42851 10.3863 5.38501 10.3532 5.34652C12.7655 5.52706 14.6666 7.54152 14.6666 10C14.6666 12.5773 12.5773 14.6667 9.99993 14.6667ZM11.9999 9.33335C11.9999 8.96516 11.7015 8.66669 11.3333 8.66669C10.9651 8.66669 10.6666 8.96516 10.6666 9.33335C10.6666 9.70154 10.9651 10 11.3333 10C11.7015 10 11.9999 9.70154 11.9999 9.33335ZM8.09147 11.1415C7.89245 11.3329 7.8863 11.6494 8.07773 11.8484C8.56229 12.3522 9.24475 12.6667 9.9998 12.6667C10.7549 12.6667 11.4373 12.3522 11.9219 11.8484C12.1133 11.6494 12.1072 11.3329 11.9081 11.1415C11.7091 10.95 11.3926 10.9562 11.2012 11.1552C10.8973 11.4711 10.4718 11.6667 9.9998 11.6667C9.52778 11.6667 9.10228 11.4711 8.79844 11.1552C8.60701 10.9562 8.29048 10.95 8.09147 11.1415ZM9.33327 9.33335C9.33327 8.96516 9.03479 8.66669 8.6666 8.66669C8.29841 8.66669 7.99993 8.96516 7.99993 9.33335C7.99993 9.70154 8.29841 10 8.6666 10C9.03479 10 9.33327 9.70154 9.33327 9.33335Z" fill="white" fill-opacity="0.16"/>
</svg>
