<svg width="16" height="16" viewBox="0 0 16 16" fill="none" xmlns="http://www.w3.org/2000/svg">
<path d="M5.93618 11.0006H10.0638C9.65054 13.1815 8.82294 14.666 8.00001 14.666C7.20201 14.666 6.39962 13.2701 5.97488 11.1969L5.93618 11.0006H10.0638H5.93618ZM2.04388 11.0007L4.9143 11.0005C5.15748 12.3887 5.56967 13.5697 6.10909 14.3962C4.40054 13.8916 2.9781 12.7217 2.14144 11.1866L2.04388 11.0007ZM11.0857 11.0005L13.9561 11.0007C13.1353 12.6271 11.6678 13.8714 9.8916 14.3959C10.3946 13.6242 10.7871 12.5442 11.0348 11.2753L11.0857 11.0005L13.9561 11.0007L11.0857 11.0005ZM11.2876 6.66723L14.5343 6.66682C14.6218 7.0977 14.6677 7.54366 14.6677 8.00035C14.6677 8.69723 14.5608 9.36914 14.3625 10.0006H11.2274C11.2976 9.36221 11.3344 8.69149 11.3344 8.00035C11.3344 7.69747 11.3273 7.39851 11.3135 7.10447L11.2876 6.66723L14.5343 6.66682L11.2876 6.66723ZM1.46568 6.66682L4.71237 6.66723C4.68153 7.10053 4.66564 7.54603 4.66564 8.00035C4.66564 8.55326 4.68918 9.0931 4.73454 9.61379L4.77262 10.0006H1.63753C1.43922 9.36914 1.33231 8.69723 1.33231 8.00035C1.33231 7.54366 1.37822 7.0977 1.46568 6.66682ZM5.717 6.66685H10.283C10.3165 7.09727 10.3344 7.54317 10.3344 8.00035C10.3344 8.55878 10.3077 9.10037 10.2585 9.6175L10.2174 10.0006H5.78264C5.70728 9.37011 5.66564 8.69839 5.66564 8.00035C5.66564 7.65746 5.67569 7.32093 5.69484 6.9925L5.717 6.66685H10.283H5.717ZM9.96286 1.71806L9.89093 1.60458C11.9031 2.19856 13.5191 3.7163 14.248 5.66679L11.1874 5.66699C10.977 4.05571 10.5497 2.67192 9.96286 1.71806L9.89093 1.60458L9.96286 1.71806ZM6.02786 1.62912L6.10904 1.6046C5.52187 2.50428 5.08546 3.82402 4.85369 5.37376L4.81265 5.66699L1.75206 5.66679C2.47103 3.74262 4.05343 2.23959 6.02786 1.62912L6.10904 1.6046L6.02786 1.62912ZM8.00001 1.33466C8.8792 1.33466 9.76373 3.02916 10.1427 5.45695L10.1739 5.66682H5.82613C6.18573 3.12737 7.09569 1.33466 8.00001 1.33466Z" fill="#AFAFAF"/>
<path d="M5.93618 11.0006H10.0638C9.65054 13.1815 8.82294 14.666 8.00001 14.666C7.20201 14.666 6.39962 13.2701 5.97488 11.1969L5.93618 11.0006H10.0638H5.93618ZM2.04388 11.0007L4.9143 11.0005C5.15748 12.3887 5.56967 13.5697 6.10909 14.3962C4.40054 13.8916 2.9781 12.7217 2.14144 11.1866L2.04388 11.0007ZM11.0857 11.0005L13.9561 11.0007C13.1353 12.6271 11.6678 13.8714 9.8916 14.3959C10.3946 13.6242 10.7871 12.5442 11.0348 11.2753L11.0857 11.0005L13.9561 11.0007L11.0857 11.0005ZM11.2876 6.66723L14.5343 6.66682C14.6218 7.0977 14.6677 7.54366 14.6677 8.00035C14.6677 8.69723 14.5608 9.36914 14.3625 10.0006H11.2274C11.2976 9.36221 11.3344 8.69149 11.3344 8.00035C11.3344 7.69747 11.3273 7.39851 11.3135 7.10447L11.2876 6.66723L14.5343 6.66682L11.2876 6.66723ZM1.46568 6.66682L4.71237 6.66723C4.68153 7.10053 4.66564 7.54603 4.66564 8.00035C4.66564 8.55326 4.68918 9.0931 4.73454 9.61379L4.77262 10.0006H1.63753C1.43922 9.36914 1.33231 8.69723 1.33231 8.00035C1.33231 7.54366 1.37822 7.0977 1.46568 6.66682ZM5.717 6.66685H10.283C10.3165 7.09727 10.3344 7.54317 10.3344 8.00035C10.3344 8.55878 10.3077 9.10037 10.2585 9.6175L10.2174 10.0006H5.78264C5.70728 9.37011 5.66564 8.69839 5.66564 8.00035C5.66564 7.65746 5.67569 7.32093 5.69484 6.9925L5.717 6.66685H10.283H5.717ZM9.96286 1.71806L9.89093 1.60458C11.9031 2.19856 13.5191 3.7163 14.248 5.66679L11.1874 5.66699C10.977 4.05571 10.5497 2.67192 9.96286 1.71806L9.89093 1.60458L9.96286 1.71806ZM6.02786 1.62912L6.10904 1.6046C5.52187 2.50428 5.08546 3.82402 4.85369 5.37376L4.81265 5.66699L1.75206 5.66679C2.47103 3.74262 4.05343 2.23959 6.02786 1.62912L6.10904 1.6046L6.02786 1.62912ZM8.00001 1.33466C8.8792 1.33466 9.76373 3.02916 10.1427 5.45695L10.1739 5.66682H5.82613C6.18573 3.12737 7.09569 1.33466 8.00001 1.33466Z" fill="black" fill-opacity="0.7" style="mix-blend-mode:hue"/>
<path d="M5.93618 11.0006H10.0638C9.65054 13.1815 8.82294 14.666 8.00001 14.666C7.20201 14.666 6.39962 13.2701 5.97488 11.1969L5.93618 11.0006H10.0638H5.93618ZM2.04388 11.0007L4.9143 11.0005C5.15748 12.3887 5.56967 13.5697 6.10909 14.3962C4.40054 13.8916 2.9781 12.7217 2.14144 11.1866L2.04388 11.0007ZM11.0857 11.0005L13.9561 11.0007C13.1353 12.6271 11.6678 13.8714 9.8916 14.3959C10.3946 13.6242 10.7871 12.5442 11.0348 11.2753L11.0857 11.0005L13.9561 11.0007L11.0857 11.0005ZM11.2876 6.66723L14.5343 6.66682C14.6218 7.0977 14.6677 7.54366 14.6677 8.00035C14.6677 8.69723 14.5608 9.36914 14.3625 10.0006H11.2274C11.2976 9.36221 11.3344 8.69149 11.3344 8.00035C11.3344 7.69747 11.3273 7.39851 11.3135 7.10447L11.2876 6.66723L14.5343 6.66682L11.2876 6.66723ZM1.46568 6.66682L4.71237 6.66723C4.68153 7.10053 4.66564 7.54603 4.66564 8.00035C4.66564 8.55326 4.68918 9.0931 4.73454 9.61379L4.77262 10.0006H1.63753C1.43922 9.36914 1.33231 8.69723 1.33231 8.00035C1.33231 7.54366 1.37822 7.0977 1.46568 6.66682ZM5.717 6.66685H10.283C10.3165 7.09727 10.3344 7.54317 10.3344 8.00035C10.3344 8.55878 10.3077 9.10037 10.2585 9.6175L10.2174 10.0006H5.78264C5.70728 9.37011 5.66564 8.69839 5.66564 8.00035C5.66564 7.65746 5.67569 7.32093 5.69484 6.9925L5.717 6.66685H10.283H5.717ZM9.96286 1.71806L9.89093 1.60458C11.9031 2.19856 13.5191 3.7163 14.248 5.66679L11.1874 5.66699C10.977 4.05571 10.5497 2.67192 9.96286 1.71806L9.89093 1.60458L9.96286 1.71806ZM6.02786 1.62912L6.10904 1.6046C5.52187 2.50428 5.08546 3.82402 4.85369 5.37376L4.81265 5.66699L1.75206 5.66679C2.47103 3.74262 4.05343 2.23959 6.02786 1.62912L6.10904 1.6046L6.02786 1.62912ZM8.00001 1.33466C8.8792 1.33466 9.76373 3.02916 10.1427 5.45695L10.1739 5.66682H5.82613C6.18573 3.12737 7.09569 1.33466 8.00001 1.33466Z" fill="white" fill-opacity="0.16"/>
</svg>
