<svg width="14" height="14" viewBox="0 0 14 14" fill="none" xmlns="http://www.w3.org/2000/svg">
<path fill-rule="evenodd" clip-rule="evenodd" d="M13.4732 13.4733C13.2132 13.7333 12.7865 13.7333 12.5265 13.4733L10.3665 11.3067C10.7132 11.0267 11.0265 10.7133 11.3065 10.3667L13.4732 12.5267C13.7332 12.7867 13.7332 13.2133 13.4732 13.4733Z" fill="#AFAFAF"/>
<path fill-rule="evenodd" clip-rule="evenodd" d="M6.49998 11.3333C9.16936 11.3333 11.3333 9.16939 11.3333 6.50001C11.3333 3.83063 9.16936 1.66668 6.49998 1.66668C3.8306 1.66668 1.66665 3.83063 1.66665 6.50001C1.66665 9.16939 3.8306 11.3333 6.49998 11.3333ZM6.49998 12.6667C9.90574 12.6667 12.6666 9.90577 12.6666 6.50001C12.6666 3.09425 9.90574 0.333344 6.49998 0.333344C3.09422 0.333344 0.333313 3.09425 0.333313 6.50001C0.333313 9.90577 3.09422 12.6667 6.49998 12.6667Z" fill="#AFAFAF"/>
</svg>
