<svg width="16" height="16" viewBox="0 0 16 16" fill="none" xmlns="http://www.w3.org/2000/svg">
<path d="M6.16668 4.66667C6.44282 4.66667 6.66668 4.89053 6.66668 5.16667C6.66668 5.41771 6.48167 5.62554 6.24056 5.66125L6.16668 5.66667H4.66668C3.37801 5.66667 2.33334 6.71134 2.33334 8C2.33334 9.24265 3.30473 10.2584 4.52958 10.3294L4.66668 10.3333H6.16668C6.44282 10.3333 6.66668 10.5572 6.66668 10.8333C6.66668 11.0844 6.48167 11.2922 6.24056 11.3279L6.16668 11.3333H4.66668C2.82573 11.3333 1.33334 9.84095 1.33334 8C1.33334 6.21484 2.73665 4.75744 4.50031 4.67075L4.66668 4.66667H6.16668ZM11.3333 4.66667C13.1743 4.66667 14.6667 6.15906 14.6667 8C14.6667 9.78517 13.2634 11.2426 11.4997 11.3293L11.3333 11.3333H9.83334C9.5572 11.3333 9.33334 11.1095 9.33334 10.8333C9.33334 10.5823 9.51835 10.3745 9.75946 10.3388L9.83334 10.3333H11.3333C12.622 10.3333 13.6667 9.28867 13.6667 8C13.6667 6.75736 12.6953 5.7416 11.4704 5.67063L11.3333 5.66667H9.83334C9.5572 5.66667 9.33334 5.44281 9.33334 5.16667C9.33334 4.91563 9.51835 4.70781 9.75946 4.67209L9.83334 4.66667H11.3333ZM4.66668 7.50001H11.3333C11.6095 7.50001 11.8333 7.72386 11.8333 8C11.8333 8.25314 11.6452 8.46233 11.4012 8.49544L11.3333 8.5H4.66668C4.39053 8.5 4.16668 8.27615 4.16668 8C4.16668 7.74687 4.35478 7.53768 4.59883 7.50457L4.66668 7.50001H11.3333H4.66668Z" fill="#1A8CFF"/>
</svg>
