<svg width="20" height="20" viewBox="0 0 20 20" fill="none" xmlns="http://www.w3.org/2000/svg">
<path d="M6.45833 9.99999C6.45833 10.8054 5.80541 11.4583 5 11.4583C4.19458 11.4583 3.54167 10.8054 3.54167 9.99999C3.54167 9.19457 4.19458 8.54166 5 8.54166C5.80541 8.54166 6.45833 9.19457 6.45833 9.99999ZM11.4583 9.99999C11.4583 10.8054 10.8054 11.4583 10 11.4583C9.19458 11.4583 8.54167 10.8054 8.54167 9.99999C8.54167 9.19457 9.19458 8.54166 10 8.54166C10.8054 8.54166 11.4583 9.19457 11.4583 9.99999ZM15 11.4583C15.8054 11.4583 16.4583 10.8054 16.4583 9.99999C16.4583 9.19457 15.8054 8.54166 15 8.54166C14.1946 8.54166 13.5417 9.19457 13.5417 9.99999C13.5417 10.8054 14.1946 11.4583 15 11.4583Z" fill="#AFAFAF"/>
</svg>
