<svg width="17" height="16" viewBox="0 0 17 16" fill="none" xmlns="http://www.w3.org/2000/svg">
<path d="M5.66668 7.99999C5.66668 8.64433 5.14434 9.16666 4.50001 9.16666C3.85568 9.16666 3.33334 8.64433 3.33334 7.99999C3.33334 7.35566 3.85568 6.83333 4.50001 6.83333C5.14434 6.83333 5.66668 7.35566 5.66668 7.99999ZM9.66668 7.99999C9.66668 8.64433 9.14434 9.16666 8.50001 9.16666C7.85568 9.16666 7.33334 8.64433 7.33334 7.99999C7.33334 7.35566 7.85568 6.83333 8.50001 6.83333C9.14434 6.83333 9.66668 7.35566 9.66668 7.99999ZM12.5 9.16666C13.1443 9.16666 13.6667 8.64433 13.6667 7.99999C13.6667 7.35566 13.1443 6.83333 12.5 6.83333C11.8557 6.83333 11.3333 7.35566 11.3333 7.99999C11.3333 8.64433 11.8557 9.16666 12.5 9.16666Z" fill="#AFAFAF"/>
</svg>
