<svg width="16" height="16" viewBox="0 0 16 16" fill="none" xmlns="http://www.w3.org/2000/svg">
<path d="M7.32462 1.92627C7.37594 1.65494 7.19759 1.39338 6.92626 1.34205C6.65493 1.29073 6.39337 1.46908 6.34204 1.74041L5.66265 5.33202L2.49978 5.3335C2.22363 5.33362 1.99988 5.55759 2.00001 5.83373C2.00014 6.10987 2.2241 6.33362 2.50024 6.3335L5.47348 6.33211L4.84298 9.66526L1.83311 9.66667C1.55697 9.6668 1.33321 9.89076 1.33334 10.1669C1.33347 10.443 1.55743 10.6668 1.83358 10.6667L4.6538 10.6653L4.00869 14.0757C3.95737 14.3471 4.13572 14.6086 4.40705 14.66C4.67838 14.7113 4.93994 14.5329 4.99127 14.2616L5.67162 10.6649L9.32092 10.6632L8.6754 14.0757C8.62407 14.3471 8.80242 14.6086 9.07375 14.66C9.34509 14.7113 9.60665 14.5329 9.65797 14.2616L10.3387 10.6627L13.5002 10.6612C13.7764 10.6611 14.0001 10.4371 14 10.161C13.9999 9.88484 13.7759 9.66109 13.4998 9.66121L10.5279 9.6626L11.1584 6.32945L14.1669 6.32804C14.4431 6.32792 14.6668 6.10395 14.6667 5.82781C14.6665 5.55167 14.4426 5.32791 14.1664 5.32804L11.3476 5.32936L11.9913 1.92627C12.0427 1.65494 11.8643 1.39338 11.593 1.34205C11.3216 1.29073 11.0601 1.46908 11.0087 1.74041L10.3298 5.32984L6.68048 5.33154L7.32462 1.92627ZM6.4913 6.33163L10.1406 6.32993L9.5101 9.66308L5.8608 9.66478L6.4913 6.33163Z" fill="#AFAFAF"/>
<path d="M7.32462 1.92627C7.37594 1.65494 7.19759 1.39338 6.92626 1.34205C6.65493 1.29073 6.39337 1.46908 6.34204 1.74041L5.66265 5.33202L2.49978 5.3335C2.22363 5.33362 1.99988 5.55759 2.00001 5.83373C2.00014 6.10987 2.2241 6.33362 2.50024 6.3335L5.47348 6.33211L4.84298 9.66526L1.83311 9.66667C1.55697 9.6668 1.33321 9.89076 1.33334 10.1669C1.33347 10.443 1.55743 10.6668 1.83358 10.6667L4.6538 10.6653L4.00869 14.0757C3.95737 14.3471 4.13572 14.6086 4.40705 14.66C4.67838 14.7113 4.93994 14.5329 4.99127 14.2616L5.67162 10.6649L9.32092 10.6632L8.6754 14.0757C8.62407 14.3471 8.80242 14.6086 9.07375 14.66C9.34509 14.7113 9.60665 14.5329 9.65797 14.2616L10.3387 10.6627L13.5002 10.6612C13.7764 10.6611 14.0001 10.4371 14 10.161C13.9999 9.88484 13.7759 9.66109 13.4998 9.66121L10.5279 9.6626L11.1584 6.32945L14.1669 6.32804C14.4431 6.32792 14.6668 6.10395 14.6667 5.82781C14.6665 5.55167 14.4426 5.32791 14.1664 5.32804L11.3476 5.32936L11.9913 1.92627C12.0427 1.65494 11.8643 1.39338 11.593 1.34205C11.3216 1.29073 11.0601 1.46908 11.0087 1.74041L10.3298 5.32984L6.68048 5.33154L7.32462 1.92627ZM6.4913 6.33163L10.1406 6.32993L9.5101 9.66308L5.8608 9.66478L6.4913 6.33163Z" fill="black" fill-opacity="0.7" style="mix-blend-mode:hue"/>
<path d="M7.32462 1.92627C7.37594 1.65494 7.19759 1.39338 6.92626 1.34205C6.65493 1.29073 6.39337 1.46908 6.34204 1.74041L5.66265 5.33202L2.49978 5.3335C2.22363 5.33362 1.99988 5.55759 2.00001 5.83373C2.00014 6.10987 2.2241 6.33362 2.50024 6.3335L5.47348 6.33211L4.84298 9.66526L1.83311 9.66667C1.55697 9.6668 1.33321 9.89076 1.33334 10.1669C1.33347 10.443 1.55743 10.6668 1.83358 10.6667L4.6538 10.6653L4.00869 14.0757C3.95737 14.3471 4.13572 14.6086 4.40705 14.66C4.67838 14.7113 4.93994 14.5329 4.99127 14.2616L5.67162 10.6649L9.32092 10.6632L8.6754 14.0757C8.62407 14.3471 8.80242 14.6086 9.07375 14.66C9.34509 14.7113 9.60665 14.5329 9.65797 14.2616L10.3387 10.6627L13.5002 10.6612C13.7764 10.6611 14.0001 10.4371 14 10.161C13.9999 9.88484 13.7759 9.66109 13.4998 9.66121L10.5279 9.6626L11.1584 6.32945L14.1669 6.32804C14.4431 6.32792 14.6668 6.10395 14.6667 5.82781C14.6665 5.55167 14.4426 5.32791 14.1664 5.32804L11.3476 5.32936L11.9913 1.92627C12.0427 1.65494 11.8643 1.39338 11.593 1.34205C11.3216 1.29073 11.0601 1.46908 11.0087 1.74041L10.3298 5.32984L6.68048 5.33154L7.32462 1.92627ZM6.4913 6.33163L10.1406 6.32993L9.5101 9.66308L5.8608 9.66478L6.4913 6.33163Z" fill="white" fill-opacity="0.16"/>
</svg>
