<svg width="16" height="16" viewBox="0 0 16 16" fill="none" xmlns="http://www.w3.org/2000/svg">
<path d="M11.8361 9.33327C12.6641 9.33327 13.3354 10.0045 13.3354 10.8325V11.4448C13.3354 11.8271 13.2159 12.1998 12.9936 12.5108C11.963 13.9529 10.2802 14.6674 7.99999 14.6674C5.71935 14.6674 4.03737 13.9526 3.00927 12.5097C2.78796 12.1991 2.66902 11.8272 2.66902 11.4458V10.8325C2.66902 10.0045 3.34026 9.33327 4.16827 9.33327H11.8361ZM7.99999 1.33641C9.84094 1.33641 11.3333 2.82879 11.3333 4.66974C11.3333 6.51069 9.84094 8.00308 7.99999 8.00308C6.15904 8.00308 4.66666 6.51069 4.66666 4.66974C4.66666 2.82879 6.15904 1.33641 7.99999 1.33641Z" fill="#AFAFAF"/>
<path d="M11.8361 9.33327C12.6641 9.33327 13.3354 10.0045 13.3354 10.8325V11.4448C13.3354 11.8271 13.2159 12.1998 12.9936 12.5108C11.963 13.9529 10.2802 14.6674 7.99999 14.6674C5.71935 14.6674 4.03737 13.9526 3.00927 12.5097C2.78796 12.1991 2.66902 11.8272 2.66902 11.4458V10.8325C2.66902 10.0045 3.34026 9.33327 4.16827 9.33327H11.8361ZM7.99999 1.33641C9.84094 1.33641 11.3333 2.82879 11.3333 4.66974C11.3333 6.51069 9.84094 8.00308 7.99999 8.00308C6.15904 8.00308 4.66666 6.51069 4.66666 4.66974C4.66666 2.82879 6.15904 1.33641 7.99999 1.33641Z" fill="black" fill-opacity="0.7" style="mix-blend-mode:hue"/>
<path d="M11.8361 9.33327C12.6641 9.33327 13.3354 10.0045 13.3354 10.8325V11.4448C13.3354 11.8271 13.2159 12.1998 12.9936 12.5108C11.963 13.9529 10.2802 14.6674 7.99999 14.6674C5.71935 14.6674 4.03737 13.9526 3.00927 12.5097C2.78796 12.1991 2.66902 11.8272 2.66902 11.4458V10.8325C2.66902 10.0045 3.34026 9.33327 4.16827 9.33327H11.8361ZM7.99999 1.33641C9.84094 1.33641 11.3333 2.82879 11.3333 4.66974C11.3333 6.51069 9.84094 8.00308 7.99999 8.00308C6.15904 8.00308 4.66666 6.51069 4.66666 4.66974C4.66666 2.82879 6.15904 1.33641 7.99999 1.33641Z" fill="white" fill-opacity="0.16"/>
</svg>
