<svg width="20" height="20" viewBox="0 0 20 20" fill="none" xmlns="http://www.w3.org/2000/svg">
<path d="M5.62225 3.33333H8.50909C8.85427 3.33333 9.13409 3.61315 9.13409 3.95833C9.13409 4.27474 8.89896 4.53624 8.5939 4.57762L8.50909 4.58333H5.62225C4.62987 4.58333 3.81755 5.3543 3.75158 6.32995L3.74725 6.45833V14.375C3.74725 15.3674 4.51822 16.1797 5.49388 16.2457L5.62225 16.25H13.5395C14.5319 16.25 15.3442 15.479 15.4102 14.5034L15.4145 14.375V13.9602C15.4145 13.615 15.6944 13.3352 16.0395 13.3352C16.3559 13.3352 16.6174 13.5703 16.6588 13.8754L16.6645 13.9602V14.375C16.6645 16.0452 15.3542 17.4094 13.7055 17.4957L13.5395 17.5H5.62225C3.95204 17.5 2.58786 16.1897 2.50159 14.541L2.49725 14.375V6.45833C2.49725 4.78811 3.80755 3.42393 5.45629 3.33766L5.62225 3.33333H8.50909H5.62225ZM12.0839 5.43321V3.12499C12.0839 2.60502 12.6729 2.32495 13.0731 2.6165L13.1416 2.67395L18.1371 7.46561C18.3702 7.68923 18.3914 8.04842 18.2007 8.29672L18.1371 8.36764L13.1416 13.1608C12.7664 13.5209 12.1565 13.2897 12.0899 12.7991L12.0839 12.7099V10.4388L11.7977 10.4639C9.79793 10.6725 7.88123 11.5732 6.03554 13.1811C5.60295 13.558 4.93368 13.2017 5.00482 12.6324C5.55882 8.19941 7.87704 5.75607 11.8344 5.44958L12.0839 5.43321V3.12499V5.43321ZM13.3339 4.59053V6.04166C13.3339 6.38684 13.0541 6.66666 12.7089 6.66666C9.48108 6.66666 7.48056 8.06344 6.61619 10.9643L6.55031 11.1965L6.8438 10.9991C8.70754 9.78099 10.6654 9.16666 12.7089 9.16666C13.0253 9.16666 13.2868 9.40179 13.3282 9.70685L13.3339 9.79166V11.244L16.8016 7.91673L13.3339 4.59053Z" fill="#545454"/>
</svg>
